<?xml version="1.0" encoding="UTF-8"?>
<svg width="4096" height="4096" xmlns="http://www.w3.org/2000/svg" xmlns:xlink="http://www.w3.org/1999/xlink">
 <defs>
  <linearGradient id="i" x1="-13741" x2="-13838" y1="4951.9" y2="2714.4" gradientTransform="rotate(15 6212.8 64573)" gradientUnits="userSpaceOnUse">
   <stop style="stop-color:#62a0ea" offset="0"/>
   <stop style="stop-color:#2ec27e" offset="1"/>
  </linearGradient>
  <linearGradient id="g" x1="-7915.4" x2="-7075" y1="3210.4" y2="-699.37" gradientTransform="translate(10257)" gradientUnits="userSpaceOnUse">
   <stop style="stop-color:#99c1f1" offset="0"/>
   <stop style="stop-color:#62a0ea" offset="1"/>
  </linearGradient>
  <linearGradient id="h" x1="-13691" x2="-13815" y1="7656.6" y2="5372.2" gradientTransform="rotate(15 6212.8 64573)" gradientUnits="userSpaceOnUse">
   <stop style="stop-color:#1a5fb4" offset="0"/>
   <stop style="stop-color:#62a0ea" offset="1"/>
  </linearGradient>
 </defs>
 <rect x="-500.6" y="-100.64" width="5322.8" height="3975.8" rx="1.454" ry="1.454" style="-inkscape-stroke:none;fill:url(#g);font-variation-settings:normal;stroke-linecap:round;stroke-width:.092"/>
 <path d="m958.4 1969.8-114.8 428.42a93.502 93.502 0 0 1-114.52 66.116 93.413 93.413 0 0 1-65.944-114.47l108.75-405.87a93.502 93.502 0 0 0-66.117-114.52 93.413 93.413 0 0 0-114.34 66.162l-12.043 44.944a93.502 93.502 0 0 1-114.52 66.117 93.413 93.413 0 0 1-65.945-114.47l108.75-405.86a93.502 93.502 0 0 0-66.115-114.52 93.413 93.413 0 0 0-114.34 66.162l-219.28 818.35a93.502 93.502 0 0 1-114.52 66.117 93.413 93.413 0 0 1-65.944-114.47l62.124-231.85a93.502 93.502 0 0 0-66.115-114.52 93.413 93.413 0 0 0-114.34 66.162l-49.054 183.08a93.502 93.502 0 0 1-114.52 66.116 93.413 93.413 0 0 0-114.34 66.162l-519.02 1937a93.502 93.502 0 0 0 66.115 114.52 93.413 93.413 0 0 1 65.944 114.47 93.413 93.413 0 0 0 66.163 114.34 93.413 93.413 0 0 1 65.944 114.47 93.413 93.413 0 0 0 66.162 114.34 93.413 93.413 0 0 0 114.34-66.163 93.413 93.413 0 0 1 114.47-65.944l180.46 48.354a147.67 147.67 0 0 0 294.8-17.807 93.413 93.413 0 0 1 114.47-65.945l180.46 48.355a147.67 147.67 0 0 1 246.4 162.82l-96.662 360.75a93.502 93.502 0 0 0 66.116 114.52l541.38 145.06a1.1327e8 1.1327e8 0 0 0 360.92 96.709 1.7867e8 1.7867e8 0 0 1 180.46 48.353 147.67 147.67 0 0 0 294.81-17.807l48.308-180.29a93.502 93.502 0 0 1 114.52-66.115l180.46 48.353 541.38 145.06a1.2203e8 1.2203e8 0 0 0 360.92 96.709 94697865 94697865 0 0 1 180.46 48.353 93.413 93.413 0 0 0 114.35-66.16l48.308-180.29a93.502 93.502 0 0 1 114.52-66.116 93.413 93.413 0 0 0 114.34-66.162l773.62-2887.2a93.502 93.502 0 0 0-66.116-114.52 93.413 93.413 0 0 0-114.34 66.162l-280.15 1045.5a93.502 93.502 0 0 1-114.52 66.116 93.413 93.413 0 0 1-65.944-114.47l38.38-143.24a93.502 93.502 0 0 0-66.117-114.52 93.413 93.413 0 0 0-114.34 66.16l-38.398 143.31a93.502 93.502 0 0 1-114.52 66.115 93.413 93.413 0 0 1-65.945-114.47l21.322-79.577a93.502 93.502 0 0 0-66.115-114.52 93.413 93.413 0 0 0-114.34 66.161l-97.404 363.52a93.502 93.502 0 0 1-114.52 66.117 97.386 97.386 0 0 1-69.724-115.4l14.85-66.355a97.478 97.478 0 0 0-69.897-115.45 91.843 91.843 0 0 0-112.81 66.56l-106.42 425.91a91.93 91.93 0 0 1-112.98 66.513 93.413 93.413 0 0 1-65.946-114.47l185.06-690.65a93.502 93.502 0 0 0-66.117-114.52 93.413 93.413 0 0 0-114.34 66.163l-150.81 562.83a93.502 93.502 0 0 1-114.52 66.116 93.413 93.413 0 0 1-65.944-114.47l75.624-282.23a93.502 93.502 0 0 0-66.117-114.52 93.413 93.413 0 0 0-114.34 66.162l-8.147 30.404a93.502 93.502 0 0 1-114.52 66.115 93.413 93.413 0 0 1-65.944-114.47l49.531-184.85a93.502 93.502 0 0 0-66.116-114.52 93.413 93.413 0 0 0-114.34 66.163l-107.11 399.74a93.502 93.502 0 0 1-114.52 66.116 93.413 93.413 0 0 1-65.945-114.47l57.594-214.94a93.502 93.502 0 0 0-66.117-114.52 93.413 93.413 0 0 0-114.34 66.162l-14.24 53.14a93.502 93.502 0 0 1-114.52 66.116 93.413 93.413 0 0 1-65.944-114.47l131.91-492.28a93.502 93.502 0 0 0-66.117-114.52 93.413 93.413 0 0 0-114.34 66.162l-144.83 540.53a93.502 93.502 0 0 1-114.52 66.116 93.413 93.413 0 0 1-65.944-114.47l238.72-890.9a93.502 93.502 0 0 0-66.115-114.52 93.413 93.413 0 0 0-114.34 66.163z" style="-inkscape-stroke:none;fill:url(#h);font-variation-settings:normal;stroke-linecap:round;stroke-width:.092"/>
 <path d="m3278.9 1971.8 114.8-428.42a93.502 93.502 0 0 1 114.52-66.117 93.413 93.413 0 0 1 65.944 114.47l-108.75 405.87a93.502 93.502 0 0 0 66.116 114.52 93.413 93.413 0 0 0 114.34-66.162l12.043-44.944a93.502 93.502 0 0 1 114.52-66.115 93.413 93.413 0 0 1 65.944 114.47l-108.75 405.86a93.502 93.502 0 0 0 66.115 114.52 93.413 93.413 0 0 0 114.34-66.162l219.28-818.35a93.502 93.502 0 0 1 114.52-66.116 93.413 93.413 0 0 1 65.944 114.47l-62.124 231.85a93.502 93.502 0 0 0 66.115 114.52 93.413 93.413 0 0 0 114.34-66.163l49.055-183.08a93.502 93.502 0 0 1 114.52-66.116 93.413 93.413 0 0 0 114.34-66.162l519.02-1937a93.502 93.502 0 0 0-66.117-114.52 93.413 93.413 0 0 1-65.943-114.47 93.413 93.413 0 0 0-66.163-114.34 93.413 93.413 0 0 1-65.944-114.47 93.413 93.413 0 0 0-66.162-114.34 93.413 93.413 0 0 0-114.34 66.162 93.413 93.413 0 0 1-114.47 65.944l-180.46-48.353a147.67 147.67 0 0 0-294.81 17.807 93.413 93.413 0 0 1-114.47 65.944 1.1327e8 1.1327e8 0 0 0-180.46-48.353 1.0316e8 1.0316e8 0 0 1-180.46-48.356 93.413 93.413 0 0 1-65.944-114.47l96.663-360.75a93.502 93.502 0 0 0-66.117-114.52l-360.92-96.708-541.38-145.06a1.7156e8 1.7156e8 0 0 1-360.92-96.709 93.413 93.413 0 0 0-114.34 66.162l-48.308 180.29a93.502 93.502 0 0 1-114.52 66.115l-180.46-48.353-360.92-96.708-180.46-48.356a1.5473e8 1.5473e8 0 0 0-360.92-96.709 1.0503e8 1.0503e8 0 0 1-180.46-48.353 93.413 93.413 0 0 0-114.34 66.16l-48.308 180.29a93.502 93.502 0 0 1-114.52 66.116 93.413 93.413 0 0 0-114.34 66.163l-773.62 2887.2a93.502 93.502 0 0 0 66.116 114.52 93.413 93.413 0 0 0 114.34-66.163l280.15-1045.5a93.502 93.502 0 0 1 114.52-66.117 93.413 93.413 0 0 1 65.944 114.47l-38.38 143.24a93.502 93.502 0 0 0 66.117 114.52 93.413 93.413 0 0 0 114.34-66.163l38.398-143.31a93.502 93.502 0 0 1 114.52-66.116 93.413 93.413 0 0 1 65.944 114.47l-21.323 79.577a93.502 93.502 0 0 0 66.116 114.52 93.413 93.413 0 0 0 114.34-66.162l97.403-363.52a93.502 93.502 0 0 1 114.52-66.115 97.386 97.386 0 0 1 69.725 115.4l-14.85 66.354a97.478 97.478 0 0 0 69.896 115.45 91.843 91.843 0 0 0 112.81-66.56l106.42-425.9a91.93 91.93 0 0 1 112.98-66.514 93.413 93.413 0 0 1 65.944 114.47l-185.06 690.65a93.502 93.502 0 0 0 66.116 114.52 93.413 93.413 0 0 0 114.34-66.162l150.81-562.83a93.502 93.502 0 0 1 114.52-66.117 93.413 93.413 0 0 1 65.945 114.47l-75.624 282.23a93.502 93.502 0 0 0 66.116 114.52 93.413 93.413 0 0 0 114.34-66.163l8.146-30.405a93.502 93.502 0 0 1 114.52-66.115 93.413 93.413 0 0 1 65.944 114.47l-49.532 184.85a93.502 93.502 0 0 0 66.116 114.52 93.413 93.413 0 0 0 114.34-66.161l107.11-399.74a93.502 93.502 0 0 1 114.52-66.116 93.413 93.413 0 0 1 65.944 114.47l-57.593 214.94a93.502 93.502 0 0 0 66.116 114.52 93.413 93.413 0 0 0 114.34-66.163l14.239-53.14a93.502 93.502 0 0 1 114.52-66.116 93.413 93.413 0 0 1 65.944 114.47l-131.9 492.28a93.502 93.502 0 0 0 66.115 114.52 93.413 93.413 0 0 0 114.34-66.162l144.83-540.52a93.502 93.502 0 0 1 114.52-66.116 93.413 93.413 0 0 1 65.944 114.47l-238.72 890.9a93.502 93.502 0 0 0 66.116 114.52 93.413 93.413 0 0 0 114.34-66.163z" style="-inkscape-stroke:none;fill:url(#i);font-variation-settings:normal;stroke-linecap:round;stroke-width:.043512"/>
</svg>
